<?xml version="1.0" encoding="iso-8859-1"?>
<!-- Generator: Adobe Illustrator 19.0.0, SVG Export Plug-In . SVG Version: 6.00 Build 0)  -->
<svg version="1.1" id="Capa_1" xmlns="http://www.w3.org/2000/svg" xmlns:xlink="http://www.w3.org/1999/xlink" x="0px" y="0px"
	 viewBox="0 0 477.3 477.3" style="enable-background:new 0 0 477.3 477.3;" xml:space="preserve">
<path style="fill:#ED664C;" d="M289.8,262.65v179.6H41.3V66.35c0-17.3,14-31.3,31.3-31.3h185.8c17.3,0,31.3,14,31.3,31.3v196.3
	H289.8z M255.3,200.55V83.65h-177v116.9H255.3z"/>
<rect x="78.3" y="83.65" style="fill:#FDC75B;" width="177" height="116.9"/>
<path d="M265.6,83.65c0-5.5-4.5-10-10-10h-177c-5.5,0-10,4.5-10,10v117c0,5.5,4.5,10,10,10h177c5.5,0,10-4.5,10-10V83.65z
	 M245.6,190.65h-157v-97h157V190.65z"/>
<path d="M467.2,432.65H299.6v-160h16.3c14.9,0,26.7,12.2,26.7,27.1v27.7c0,29.1,23.9,52.8,53,52.8c14.3,0,27.7-5.5,37.6-15.6
	c9.9-9.9,15.4-23.2,15.4-37.3v-158.1c0-16.5-6.3-32.7-17.2-44.3l-78.2-89.1l-15,13.2l60.6,69.1c-19,3.2-33.6,19.8-33.6,39.7
	c0,22.2,18.1,40.2,40.3,40.2c8.6,0,16.2-2.7,23.2-7.4v136.8c0,8.8-3.4,17-9.5,23.2s-14.6,9.6-23.5,9.6c-18.1,0-33-14.7-33-32.8
	v-27.7c0-26-20.8-47.1-46.7-47.1h-16.4V66.35c0-22.7-18.4-41.7-41.2-41.7H72.6c-22.8,0-41,19-41,41.7v366.3H10c-5.5,0-10,4.5-10,10
	s4.5,10,10,10h457.3c5.5,0,10-4.5,10-10S472.8,432.65,467.2,432.65z M405.4,177.95c-11.1,0-20.2-9.1-20.2-20.2
	c0-11.1,9.1-20.2,20.2-20.2s20.2,9.1,20.2,20.2S416.5,177.95,405.4,177.95z M51.6,66.35c0-11.7,9.2-21.7,21-21.7h185.8
	c11.8,0,21.2,10,21.2,21.7v366.3h-228V66.35z"/>
<g>
</g>
<g>
</g>
<g>
</g>
<g>
</g>
<g>
</g>
<g>
</g>
<g>
</g>
<g>
</g>
<g>
</g>
<g>
</g>
<g>
</g>
<g>
</g>
<g>
</g>
<g>
</g>
<g>
</g>
</svg>
